# xmcd CD database file
#
# Track frame offsets:
#	150
#	27946
#	56567
#	84305
#	109140
#	135873
#	145134
#	172246
#	198385
#
# Disc length: 2807 seconds
#
# Revision: 0
# Processed by: cddbd v1.5.2PL0 Copyright (c) Steve Scherf et al.
# Submitted via: CDex 1.99.1
#
DISCID=760af509
DTITLE=ImproviSatie - Das Welt Schmerz Duett
DYEAR=2017
DGENRE=Jazz
TTITLE0=1 Gnossienne
TTITLE1=2 Gnossienne
TTITLE2=3 Gnossienne
TTITLE3=4 Gnossienne
TTITLE4=5 Gnossienne
TTITLE5=6 Gnossienne
TTITLE6=1 Gymnopedie
TTITLE7=2 Gymnopedie
TTITLE8=3 Gymnopedie
EXTD=YEAR: 2017
EXTT0=
EXTT1=
EXTT2=
EXTT3=
EXTT4=
EXTT5=
EXTT6=
EXTT7=
EXTT8=
PLAYORDER=
